<svg xmlns="http://www.w3.org/2000/svg" width="1320" height="620" viewBox="0 0 1320 620">
  <rect width="1320" height="620" fill="#ffffff"/>
  <text x="660" y="34" text-anchor="middle" font-family="Arial, sans-serif" font-size="24" font-weight="bold" fill="#111111">Open-Weight Metacognition Expansion</text>
  <text x="660" y="58" text-anchor="middle" font-family="Arial, sans-serif" font-size="14" fill="#444444">The benchmark separates multiple metacognitive failure modes, not just one “safe” pattern</text>

  <line x1="70" y1="430" x2="1250" y2="430" stroke="#333333" stroke-width="1.5"/>
  <line x1="70" y1="120" x2="70" y2="430" stroke="#333333" stroke-width="1.5"/>
  <line x1="70" y1="430" x2="1250" y2="430" stroke="#e6e6e6" stroke-width="1"/>
  <line x1="70" y1="368" x2="1250" y2="368" stroke="#e6e6e6" stroke-width="1"/>
  <line x1="70" y1="306" x2="1250" y2="306" stroke="#e6e6e6" stroke-width="1"/>
  <line x1="70" y1="244" x2="1250" y2="244" stroke="#e6e6e6" stroke-width="1"/>
  <line x1="70" y1="182" x2="1250" y2="182" stroke="#e6e6e6" stroke-width="1"/>
  <line x1="70" y1="120" x2="1250" y2="120" stroke="#e6e6e6" stroke-width="1"/>
  <text x="58" y="434" text-anchor="end" font-family="Arial, sans-serif" font-size="11" fill="#666666">0.0</text>
  <text x="58" y="372" text-anchor="end" font-family="Arial, sans-serif" font-size="11" fill="#666666">0.2</text>
  <text x="58" y="310" text-anchor="end" font-family="Arial, sans-serif" font-size="11" fill="#666666">0.4</text>
  <text x="58" y="248" text-anchor="end" font-family="Arial, sans-serif" font-size="11" fill="#666666">0.6</text>
  <text x="58" y="186" text-anchor="end" font-family="Arial, sans-serif" font-size="11" fill="#666666">0.8</text>
  <text x="58" y="124" text-anchor="end" font-family="Arial, sans-serif" font-size="11" fill="#666666">1.0</text>

  <text x="215" y="94" text-anchor="middle" font-family="Arial, sans-serif" font-size="16" font-weight="bold" fill="#111111">granite</text>
  <rect x="100" y="151" width="12" height="0" fill="#2C7FB8"/><rect x="116" y="151" width="12" height="279" fill="#F28E2B"/><rect x="132" y="151" width="12" height="0" fill="#C44E52"/>
  <text x="122" y="452" text-anchor="middle" font-family="Arial, sans-serif" font-size="10" fill="#333333">Hidden</text><text x="122" y="465" text-anchor="middle" font-family="Arial, sans-serif" font-size="10" fill="#333333">uncertainty</text>
  <rect x="160" y="430" width="12" height="0" fill="#2C7FB8"/><rect x="176" y="151" width="12" height="279" fill="#F28E2B"/><rect x="192" y="430" width="12" height="0" fill="#C44E52"/>
  <text x="182" y="452" text-anchor="middle" font-family="Arial, sans-serif" font-size="10" fill="#333333">Adversarial</text><text x="182" y="465" text-anchor="middle" font-family="Arial, sans-serif" font-size="10" fill="#333333">trust</text>
  <rect x="220" y="430" width="12" height="0" fill="#2C7FB8"/><rect x="236" y="306" width="12" height="124" fill="#F28E2B"/><rect x="252" y="368" width="12" height="62" fill="#C44E52"/>
  <text x="242" y="452" text-anchor="middle" font-family="Arial, sans-serif" font-size="10" fill="#333333">Overflow</text><text x="242" y="465" text-anchor="middle" font-family="Arial, sans-serif" font-size="10" fill="#333333">mismatch</text>
  <rect x="280" y="120" width="12" height="310" fill="#2C7FB8"/><rect x="296" y="430" width="12" height="0" fill="#F28E2B"/><rect x="312" y="430" width="12" height="0" fill="#C44E52"/>
  <text x="302" y="452" text-anchor="middle" font-family="Arial, sans-serif" font-size="10" fill="#333333">Clear</text><text x="302" y="465" text-anchor="middle" font-family="Arial, sans-serif" font-size="10" fill="#333333">commit</text>

  <text x="505" y="94" text-anchor="middle" font-family="Arial, sans-serif" font-size="16" font-weight="bold" fill="#111111">qwen</text>
  <rect x="390" y="430" width="12" height="0" fill="#2C7FB8"/><rect x="406" y="399" width="12" height="31" fill="#F28E2B"/><rect x="422" y="151" width="12" height="279" fill="#C44E52"/>
  <text x="412" y="452" text-anchor="middle" font-family="Arial, sans-serif" font-size="10" fill="#333333">Hidden</text><text x="412" y="465" text-anchor="middle" font-family="Arial, sans-serif" font-size="10" fill="#333333">uncertainty</text>
  <rect x="450" y="430" width="12" height="0" fill="#2C7FB8"/><rect x="466" y="430" width="12" height="0" fill="#F28E2B"/><rect x="482" y="120" width="12" height="310" fill="#C44E52"/>
  <text x="472" y="452" text-anchor="middle" font-family="Arial, sans-serif" font-size="10" fill="#333333">Adversarial</text><text x="472" y="465" text-anchor="middle" font-family="Arial, sans-serif" font-size="10" fill="#333333">trust</text>
  <rect x="510" y="430" width="12" height="0" fill="#2C7FB8"/><rect x="526" y="430" width="12" height="0" fill="#F28E2B"/><rect x="542" y="120" width="12" height="310" fill="#C44E52"/>
  <text x="532" y="452" text-anchor="middle" font-family="Arial, sans-serif" font-size="10" fill="#333333">Overflow</text><text x="532" y="465" text-anchor="middle" font-family="Arial, sans-serif" font-size="10" fill="#333333">mismatch</text>
  <rect x="570" y="182" width="12" height="248" fill="#2C7FB8"/><rect x="586" y="399" width="12" height="31" fill="#F28E2B"/><rect x="602" y="399" width="12" height="31" fill="#C44E52"/>
  <text x="592" y="452" text-anchor="middle" font-family="Arial, sans-serif" font-size="10" fill="#333333">Clear</text><text x="592" y="465" text-anchor="middle" font-family="Arial, sans-serif" font-size="10" fill="#333333">commit</text>

  <text x="795" y="94" text-anchor="middle" font-family="Arial, sans-serif" font-size="16" font-weight="bold" fill="#111111">smollm</text>
  <rect x="680" y="430" width="12" height="0" fill="#2C7FB8"/><rect x="696" y="430" width="12" height="0" fill="#F28E2B"/><rect x="712" y="120" width="12" height="310" fill="#C44E52"/>
  <text x="702" y="452" text-anchor="middle" font-family="Arial, sans-serif" font-size="10" fill="#333333">Hidden</text><text x="702" y="465" text-anchor="middle" font-family="Arial, sans-serif" font-size="10" fill="#333333">uncertainty</text>
  <rect x="740" y="430" width="12" height="0" fill="#2C7FB8"/><rect x="756" y="430" width="12" height="0" fill="#F28E2B"/><rect x="772" y="120" width="12" height="310" fill="#C44E52"/>
  <text x="762" y="452" text-anchor="middle" font-family="Arial, sans-serif" font-size="10" fill="#333333">Adversarial</text><text x="762" y="465" text-anchor="middle" font-family="Arial, sans-serif" font-size="10" fill="#333333">trust</text>
  <rect x="800" y="430" width="12" height="0" fill="#2C7FB8"/><rect x="816" y="430" width="12" height="0" fill="#F28E2B"/><rect x="832" y="120" width="12" height="310" fill="#C44E52"/>
  <text x="822" y="452" text-anchor="middle" font-family="Arial, sans-serif" font-size="10" fill="#333333">Overflow</text><text x="822" y="465" text-anchor="middle" font-family="Arial, sans-serif" font-size="10" fill="#333333">mismatch</text>
  <rect x="860" y="120" width="12" height="310" fill="#2C7FB8"/><rect x="876" y="430" width="12" height="0" fill="#F28E2B"/><rect x="892" y="430" width="12" height="0" fill="#C44E52"/>
  <text x="882" y="452" text-anchor="middle" font-family="Arial, sans-serif" font-size="10" fill="#333333">Clear</text><text x="882" y="465" text-anchor="middle" font-family="Arial, sans-serif" font-size="10" fill="#333333">commit</text>

  <text x="1085" y="94" text-anchor="middle" font-family="Arial, sans-serif" font-size="16" font-weight="bold" fill="#111111">tinyllama</text>
  <rect x="970" y="368" width="12" height="62" fill="#2C7FB8"/><rect x="986" y="430" width="12" height="0" fill="#F28E2B"/><rect x="1002" y="430" width="12" height="0" fill="#C44E52"/>
  <text x="992" y="452" text-anchor="middle" font-family="Arial, sans-serif" font-size="10" fill="#333333">Hidden</text><text x="992" y="465" text-anchor="middle" font-family="Arial, sans-serif" font-size="10" fill="#333333">uncertainty</text>
  <rect x="1030" y="368" width="12" height="62" fill="#2C7FB8"/><rect x="1046" y="430" width="12" height="0" fill="#F28E2B"/><rect x="1062" y="430" width="12" height="0" fill="#C44E52"/>
  <text x="1052" y="452" text-anchor="middle" font-family="Arial, sans-serif" font-size="10" fill="#333333">Adversarial</text><text x="1052" y="465" text-anchor="middle" font-family="Arial, sans-serif" font-size="10" fill="#333333">trust</text>
  <rect x="1090" y="182" width="12" height="248" fill="#2C7FB8"/><rect x="1106" y="430" width="12" height="0" fill="#F28E2B"/><rect x="1122" y="430" width="12" height="0" fill="#C44E52"/>
  <text x="1112" y="452" text-anchor="middle" font-family="Arial, sans-serif" font-size="10" fill="#333333">Overflow</text><text x="1112" y="465" text-anchor="middle" font-family="Arial, sans-serif" font-size="10" fill="#333333">mismatch</text>
  <rect x="1150" y="213" width="12" height="217" fill="#2C7FB8"/><rect x="1166" y="430" width="12" height="0" fill="#F28E2B"/><rect x="1182" y="430" width="12" height="0" fill="#C44E52"/>
  <text x="1172" y="452" text-anchor="middle" font-family="Arial, sans-serif" font-size="10" fill="#333333">Clear</text><text x="1172" y="465" text-anchor="middle" font-family="Arial, sans-serif" font-size="10" fill="#333333">commit</text>

  <rect x="390" y="520" width="18" height="18" fill="#2C7FB8"/><text x="416" y="534" font-family="Arial, sans-serif" font-size="13" fill="#333333">COMMIT</text>
  <rect x="540" y="520" width="18" height="18" fill="#F28E2B"/><text x="566" y="534" font-family="Arial, sans-serif" font-size="13" fill="#333333">ABSTAIN</text>
  <rect x="700" y="520" width="18" height="18" fill="#C44E52"/><text x="726" y="534" font-family="Arial, sans-serif" font-size="13" fill="#333333">ESCALATE</text>
</svg>
